<svg width="122" height="33" viewBox="0 0 122 33" fill="none" xmlns="http://www.w3.org/2000/svg">
<g id="ICONS_22" clip-path="url(#clip0_27_869)">
<path id="Vector" d="M2.75 21.35L5.09 21.37H5.77L6.02 21.35L9.32 21.41C9.91 21.45 10.23 21.81 10.3 22.5C10.33 22.77 10.36 23.05 10.4 23.32C10.49 23.97 10.96 24.3 11.82 24.3C12.68 24.3 13.22 23.9 13.45 23.09C13.62 22.47 13.7 21.72 13.7 20.86V20.35H13.64L13.56 17.58C13.51 15.77 13.48 13.09 13.48 9.55C13.48 6.01 13.51 3.44 13.56 1.85L13.54 1.83C13.54 1.73 13.58 1.65 13.66 1.6L13.91 1.56L14.87 1.58H22.02L23.45 1.56H25.36C25.46 1.56 25.54 1.62 25.59 1.74C25.56 2.03 25.55 2.46 25.55 3.05V3.36L25.53 3.69L25.49 4.69C25.4 7.16 25.35 10.84 25.35 15.71V17.86C25.35 19.7 25.35 21.23 25.33 22.46C25.31 23.69 25.01 24.92 24.42 26.15C23.83 27.38 23.09 28.36 22.19 29.1C21.3 29.84 20.27 30.44 19.09 30.93C17.02 31.78 14.86 32.2 12.61 32.2C10.36 32.2 8.48 31.97 6.97 31.52C5.63 31.18 4.52 30.66 3.64 29.97C2.76 29.27 2.08 28.61 1.6 27.99C0.55 26.57 0.02 24.84 0.02 22.78V22.27L0 22.04C0 21.53 0.08 21.28 0.23 21.28L2.75 21.36V21.35Z" fill="black"/>
<path id="Vector_2" d="M27.9099 16.37L27.9499 15.94C28.1099 14.31 28.3099 12.87 28.5699 11.61C28.8299 10.35 29.2499 9.18 29.8399 8.08C31.2299 5.67 33.1799 3.85 35.6699 2.6C38.1599 1.36 40.8499 0.729996 43.7399 0.729996C46.6299 0.729996 49.2399 1.31 51.5999 2.47C53.0099 3.16 54.1099 4.03 54.8999 5.09C56.4199 6.99 57.4299 8.74 57.9099 10.34C58.3899 11.94 58.6299 13.79 58.6299 15.89C58.6299 20.55 57.6699 24.11 55.7399 26.55L54.8399 27.74C53.6299 29.15 51.9199 30.23 49.6999 30.99C47.4799 31.75 45.2899 32.15 43.1199 32.17C39.3999 32.17 36.3399 31.39 33.9599 29.83C29.9199 27.21 27.9099 22.72 27.9099 16.35V16.37ZM39.1399 16.21C39.1399 16.21 39.1399 16.26 39.1199 16.31V16.37C39.0699 16.92 39.0399 17.53 39.0399 18.21C39.0399 18.89 39.0999 19.6 39.2099 20.36C39.3199 21.12 39.4999 21.87 39.7599 22.63C40.0099 23.39 40.4099 24 40.9399 24.47C41.5099 24.97 42.1499 25.21 42.8599 25.21C43.5699 25.21 44.1699 25.11 44.6599 24.91C45.1499 24.71 45.5599 24.45 45.8899 24.14C46.2199 23.83 46.5099 23.4 46.7599 22.87C47.3799 21.45 47.6999 19.25 47.6999 16.27C47.6999 13.29 47.3499 11.11 46.6599 9.89C45.9599 8.67 44.9099 8.06 43.5099 8.06C42.8099 8.06 42.1899 8.23 41.6599 8.57C41.1299 8.91 40.7399 9.26 40.4699 9.62C40.1999 9.97999 39.9299 10.76 39.6499 11.94C39.3699 13.13 39.2299 14.22 39.2299 15.22L39.1499 16.22L39.1399 16.21Z" fill="black"/>
<path id="Vector_3" d="M67.32 1.21999L69.8 1.17999C71.79 1.17999 72.79 1.24999 72.79 1.38999C72.76 1.43999 72.75 1.50999 72.75 1.59999C72.57 2.03999 72.34 2.66999 72.07 3.48999C71.8 4.30999 71.62 4.82999 71.54 5.04999L70.97 6.62999C70.02 9.47999 69.22 11.72 68.57 13.35C68.02 13.78 66.71 13.99 64.64 13.99H62.86L62.61 14.01H61.28C60.68 14.01 60.33 13.96 60.23 13.85C60.23 13.85 60 13.73 60.17 13.02C60.23 12.78 60.28 12.59 60.31 12.46L61.05 9.72999C61 9.71999 63.24 2.56999 63.45 1.20999C63.61 1.19999 63.81 1.18999 64.07 1.18999H67.31L67.32 1.21999Z" fill="black"/>
<path id="Vector_4" d="M74.73 22.99L85.06 22.81C85.32 22.81 85.54 23.03 85.71 23.47C85.89 23.91 86.06 24.26 86.23 24.52C86.63 25.14 87.3 25.46 88.23 25.46C89.16 25.46 89.91 25.24 90.49 24.81C91.06 24.37 91.35 23.81 91.35 23.12C91.35 22.43 91.17 21.96 90.82 21.7C90.47 21.44 90.08 21.2 89.67 20.96C89.25 20.72 88.64 20.53 87.82 20.4C87.01 20.27 86.56 20.19 86.48 20.17H86.52L85.41 19.88C84.69 19.75 84.09 19.61 83.61 19.45C80.5 18.62 78.25 17.57 76.86 16.31C75.47 15.05 74.78 13.35 74.78 11.21C74.78 9.66 75.07 8.27 75.64 7.03C76.21 5.79 76.96 4.77999 77.89 4C80.56 1.75 84.24 0.619995 88.94 0.619995C92.68 0.619995 95.61 1.3 97.75 2.65H97.73C99.1 3.64 100.03 4.61 100.54 5.57C101.05 6.53 101.37 7.70999 101.5 9.10999L100.99 9.62C97.57 9.75 94.53 9.81999 91.89 9.81999C91.1 9.81999 90.62 9.59 90.46 9.12C90.39 8.92 90.32 8.72999 90.25 8.52999C90.07 8.06 89.48 7.83 88.49 7.83H88.41C87.64 7.83 86.98 8.00999 86.44 8.37C85.89 8.72999 85.62 9.08 85.61 9.41C85.61 9.75 85.68 10.03 85.82 10.25C85.97 10.47 86.13 10.65 86.3 10.78C86.47 10.91 86.73 11.04 87.08 11.18C87.43 11.32 87.7 11.41 87.87 11.45C88.05 11.5 88.32 11.57 88.7 11.67L89.38 11.85C89.65 11.93 90.45 12.12 91.77 12.44C93.09 12.76 94.19 13.05 95.08 13.34V13.32C97.85 14.26 99.75 15.43 100.75 16.83C101.76 18.23 102.26 19.86 102.26 21.72C102.26 26.68 99.3 29.9 93.37 31.37C91.65 31.8 89.82 32.11 87.86 32.29C85.46 32.29 83.09 31.94 80.75 31.24C78.41 30.54 76.84 29.39 76.04 27.8C75.51 27.03 75.15 26.33 74.97 25.68C74.79 25.03 74.64 24.13 74.52 22.97C74.56 22.98 74.62 22.99 74.7 22.99H74.73Z" fill="black"/>
<path id="Vector_5" d="M119.29 14.99C117.27 17.33 114.8 18.5 111.88 18.5C110.35 18.5 108.73 18.02 107.04 17.07C105.12 15.88 103.79 13.95 103.04 11.3C102.86 10.63 102.72 9.96 102.63 9.27C102.74 6.7 103.59 4.57 105.18 2.88C106.05 1.95 107.1 1.23 108.32 0.750004C109.54 0.260004 110.75 0.0200043 111.95 0.0200043C113.15 0.0200043 114.31 0.260004 115.45 0.750004C116.58 1.24 117.57 1.9 118.41 2.73C119.25 3.56 119.94 4.56 120.47 5.72C121 6.88 121.29 8.11 121.35 9.41C121.33 10.43 121.14 11.43 120.78 12.41C120.42 13.39 119.93 14.26 119.3 15.01L119.29 14.99ZM112.09 2.29H111.93C110.98 2.29 110.07 2.49 109.21 2.88C108.34 3.27 107.6 3.81 106.96 4.5C106.33 5.18 105.88 5.86 105.62 6.54C105.36 7.22 105.16 8.07 105.03 9.1C105.03 10.31 105.34 11.46 105.96 12.54C106.58 13.62 107.42 14.49 108.47 15.14C109.52 15.79 110.58 16.12 111.64 16.12C112.7 16.12 113.66 15.93 114.51 15.56C115.36 15.19 116.11 14.68 116.74 14.05C117.37 13.42 117.88 12.64 118.27 11.74C118.65 10.84 118.85 9.91 118.85 8.95C118.85 7.99 118.67 7.11 118.3 6.3C117.93 5.49 117.44 4.79 116.83 4.22C116.22 3.64 115.5 3.18 114.67 2.84C113.85 2.49 112.99 2.31 112.1 2.3L112.09 2.29ZM115.67 10.33H115.83L115.98 10.32C116.33 10.32 116.53 10.4 116.58 10.55C116.33 11.64 115.82 12.56 115.04 13.29C114.27 14.02 113.39 14.39 112.41 14.39C110.4 14.39 108.93 13.61 108 12.04C107.48 11.17 107.21 10.19 107.18 9.11C107.24 8.16 107.53 7.3 108.03 6.51C108.54 5.73 109.17 5.12 109.93 4.7C110.68 4.27 111.48 4.06 112.3 4.06C113.45 4.06 114.36 4.39 115.05 5.04C115.74 5.7 116.2 6.58 116.44 7.68C116.41 7.75 116.23 7.78 115.9 7.78H115.64L113.94 7.77L113.85 7.68C113.57 6.81 113.01 6.38 112.17 6.38C111.08 6.38 110.39 7.01 110.11 8.27C110.04 8.57 110.01 8.89 110.01 9.2C110.01 9.93 110.18 10.55 110.52 11.07C110.86 11.59 111.35 11.84 111.99 11.84C112.63 11.84 113.04 11.68 113.22 11.36C113.5 10.85 113.73 10.51 113.92 10.34C114.13 10.32 114.4 10.32 114.75 10.32H115.66L115.67 10.33ZM116.47 7.68V7.7H116.46L116.47 7.68Z" fill="black"/>
</g>
<defs>
<clipPath id="clip0_27_869">
<rect width="121.34" height="32.29" fill="white"/>
</clipPath>
</defs>
</svg>
